PathFileType	4	(X/Y/Z)	Static.trc																																																																									
DataRate	CameraRate	NumFrames	NumMarkers	Units	OrigDataRate	OrigDataStartFrame	OrigNumFrames																																																																					
100	100	4	25	mm	100	59	473																																																																					
Frame#	Time	AA			AI			Ant_Sh			CV7			GH			LAH			Lat_Sh			LCAJ			LPH			Post_Sh			RAH			RCAJ			RHLE			RHME			RPH			RUA			SJN			SXS			TS			TV8			centelbow			centpxt8			centijc7			centLPHRPH			ScapulaThoracicContactPt		
		X1	Y1	Z1	X2	Y2	Z2	X3	Y3	Z3	X4	Y4	Z4	X5	Y5	Z5	X6	Y6	Z6	X7	Y7	Z7	X8	Y8	Z8	X9	Y9	Z9	X10	Y10	Z10	X11	Y11	Z11	X12	Y12	Z12	X13	Y13	Z13	X14	Y14	Z14	X15	Y15	Z15	X16	Y16	Z16	X17	Y17	Z17	X18	Y18	Z18	X19	Y19	Z19	X20	Y20	Z20	X21	Y21	Z21	X22	Y22	Z22	X23	Y23	Z23	X24	Y24	Z24	X25	Y25	Z25
																																																																												
60	0.59	-219.8326416	1526.187256	714.324707	-268.5215149	1355.531982	645.4909668	-106.8852005	1496.663818	721.0993042	-216.7036133	1594.697754	517.6298218	-163.9697113	1493.836914	717.0593872	4.1989851	1772.175781	484.4402466	-167.2192535	1512.576294	749.8634033	-157.8457031	1557.165771	337.7875671	-204.1463013	1725.367432	461.9009399	-245.9059906	1489.779297	711.2608032	-8.517631531	1771.959229	579.0932007	-162.1264801	1558.050293	688.4454346	-174.5728912	1232.520752	849.1609497	-117.9679337	1178.521973	755.2677002	-205.6014099	1726.366455	577.7617798	-222.4902496	1338.077759	757.064209	-54.31625366	1505.38562	520.9004517	4.35803175	1332.40271	522.3212891	-271.0444031	1497.330688	603.2559204	-235.0952454	1306.819214	515.1860962	-146.2704124	1205.521362	802.214325	-115.3686068	1319.610962	518.7536926	-135.5099335	1550.041687	519.2651367	-204.8738556	1725.866943	519.8313599	-253.1328532	1459.683309	654.3571981
61	0.6	-219.7612305	1526.1698	714.3932495	-268.4169312	1355.543091	645.5262451	-106.8214035	1496.672729	721.111084	-216.6621246	1594.67688	517.6583862	-163.9146118	1493.850342	717.0770874	4.315454483	1772.19519	484.5361938	-167.1575012	1512.562866	749.8824463	-157.796814	1557.199951	337.8182068	-204.1407623	1725.394775	461.9534302	-245.8345032	1489.801025	711.2889404	-8.581073761	1771.935669	579.1777954	-162.0728302	1558.02771	688.4190063	-174.5117035	1232.506592	849.1747437	-117.858696	1178.541748	755.2789307	-205.5525055	1726.38269	577.7888184	-222.4096069	1338.037842	757.0802002	-54.26898193	1505.374878	520.899231	4.460785866	1332.402832	522.3440552	-270.9621582	1497.321411	603.2663574	-235.0561829	1306.827637	515.2227783	-146.1851997	1205.52417	802.2268372	-115.2976985	1319.615234	518.7834167	-135.4655533	1550.025879	519.2788086	-204.8466339	1725.888733	519.8711243	-253.0467733	1459.678101	654.395284
62	0.61	-219.7149506	1526.204834	714.3688965	-268.3766174	1355.541992	645.5236816	-106.7512665	1496.665527	721.1616211	-216.5907288	1594.706299	517.6610718	-163.8492889	1493.836182	717.1063843	4.232185364	1772.220947	484.4725037	-167.1062775	1512.542358	749.9138184	-157.7551117	1557.195923	337.8397522	-204.0660553	1725.348022	461.9638062	-245.7374573	1489.778442	711.2905273	-8.546957016	1771.971802	579.1756592	-162.0184021	1558.042358	688.4458008	-174.4871368	1232.498901	849.1710205	-117.7875824	1178.516113	755.2857666	-205.4822845	1726.337402	577.8009644	-222.3645172	1338.05896	757.1074219	-54.17636108	1505.369995	520.9349365	4.471937656	1332.379272	522.3376465	-270.9249878	1497.351929	603.3018799	-234.9628448	1306.830078	515.2215576	-146.1373596	1205.507507	802.2283936	-115.2454536	1319.604675	518.7796021	-135.3835449	1550.038147	519.2980042	-204.7741699	1725.842712	519.8823853	-253.0055186	1459.699585	654.3981527
63	0.62	-219.6541138	1526.202148	714.442627	-268.3136902	1355.552612	645.5307007	-106.6824493	1496.663208	721.2126465	-216.531601	1594.695313	517.7261353	-163.8283997	1493.833618	717.1438599	4.337419033	1772.243774	484.5484314	-167.090683	1512.558594	749.9403687	-157.6685638	1557.221436	337.8534546	-204.0158844	1725.36438	461.9903259	-245.6919403	1489.780151	711.3151855	-8.476695061	1771.963989	579.2385864	-161.9237518	1558.039673	688.4406738	-174.427887	1232.503784	849.1925049	-117.6478806	1178.531128	755.3228149	-205.408905	1726.320068	577.8674316	-222.3252258	1338.026733	757.135498	-54.11824417	1505.402466	520.9550171	4.559584141	1332.36145	522.3721313	-270.8398743	1497.284546	603.3035889	-234.9628906	1306.829956	515.2215576	-146.0378838	1205.517456	802.2576599	-115.2016532	1319.595703	518.7968445	-135.3249226	1550.048889	519.3405762	-204.7123947	1725.842224	519.9288788	-252.9358927	1459.679769	654.4256388
